<?xml version="1.0"?>
<svg version="1.1" xmlns="http://www.w3.org/2000/svg" width="155" height="47" style=""><path fill="#10de43" d="M33.084,27.229l-0.066,1.056q0,2.145,2.31,2.145q1.914,0,3.861-1.32t1.947-2.673t-1.584-2.277q-1.056-0.627-3.3-0.627q-3.333,0-7.4415,1.584t-7.7055,5.082q-4.719,4.62-4.719,8.481q0,2.277,1.7325,3.663t4.5375,1.386q3.894,0,9.042-2.937q4.29-2.409,6.435-5.115l0.957-1.419q-0.594,0-4.917,0.3465t-4.95,0.495t-1.023,0.1485q-1.089,0-1.089-0.528q0-0.825,2.508-1.3695t8.481-0.5445t7.887,0.462q0.297,0.066,0.297,0.165q0,0.363-2.277,0.528q-2.838,0.231-2.904,0.231q-3.366,4.422-8.712,13.662q-0.297,0.528-0.5775,0.528t-0.2805-0.429q0-1.155,1.848-4.455l2.31-4.323q-2.112,1.815-5.379,3.399q-4.257,2.013-8.0355,2.013t-5.775-1.6335t-1.9965-4.3725q0-5.049,6.105-10.263q3.069-2.64,7.425-4.389t7.6395-1.749t5.0325,1.287q1.353,1.056,1.353,2.376q0,1.881-2.3265,3.6135t-4.6035,1.7325q-3.069,0-3.069-3.531q0-1.353,0.561-1.353q0.462,0,0.462,0.924z M54.73761,33.433l0.462-0.099q0.363,0,0.693,0.297t0.33,0.462t-2.046,3.1845t-2.046,4.2075q0,0.099,0.033,0.198q0.165,0.759,0.726,0.759q1.716,0,6.27-5.676q0.099-0.132,0.231-0.132t0.132,0.2475t-0.297,0.6435q-4.224,5.643-6.435,5.643q-0.297,0-0.561-0.099q-1.452-0.561-1.452-2.178q0-0.561,0.132-1.122l-2.046,1.98q-1.947,1.716-2.8215,1.716t-1.6665-0.561q-0.891-0.66-0.891-1.749q0-2.409,3.366-5.7585t6.171-3.3495q1.089,0,1.452,0.759q0.099,0.264,0.165,0.4455t0.099,0.1815z M44.87061,41.551q0,1.188,0.825,1.188q1.914,0,5.214-4.191l3.498-4.818q-0.264-0.462-0.858-0.462q-2.013,0-5.346,3.1185t-3.333,5.1645z M74.60922,42.904q-2.244,0-2.244-2.079q0-1.188,1.056-3.2505t2.211-3.4815q-2.046,0.99-4.719,3.5805t-3.729,5.4285q-0.165,0.264-0.561,0.264q-0.792,0-0.792-0.891q0.33-1.815,1.485-4.158q0.363-0.759,2.145-4.422q-2.574,1.683-4.3725,3.6135t-3.333,3.8775t-1.7325,1.947q-0.429,0-0.7425-0.396t-0.3135-0.792q0-0.594,1.716-4.356l-1.98,2.079q-0.726,0.726-0.9075,0.726t-0.1815-0.2145t0.264-0.4785q1.221-1.221,2.178-2.442t3.168-4.356q0.363-0.495,1.023-0.495t0.66,0.627q0,0.231-1.749,3.2175t-1.947,3.7455q1.353-1.485,4.059-3.993q4.059-3.762,5.346-3.762q0.396,0,0.726,0.231t0.33,0.5115t-1.287,2.4915q-1.254,2.277-1.386,2.706q3.663-3.069,3.663-3.102q3.102-2.409,4.455-2.409q0.396,0,0.7425,0.2475t0.3465,0.5775q0,0.066-2.145,2.7885t-2.409,4.4715q-0.066,0.594,0.231,0.891t1.0725,0.297t2.277-1.0725t3.0525-2.8875q0.594-0.66,0.8085-0.66t0.2145,0.165q0,0.231-0.297,0.528q-1.617,1.947-3.4815,3.3165t-2.9205,1.3695z M82.79883,43.729q-0.363,0-0.66-0.099q-2.112-0.594-2.112-2.376q0-2.31,2.904-5.346t5.214-3.036q0.759,0,1.2375,0.4125t0.4785,1.0065q0,1.848-2.7885,3.531t-4.5375,1.683q-0.264,0-0.462-0.066q-0.495,0.891-0.495,1.881q0,1.716,1.6335,1.716t4.2405-2.211q2.013-1.617,3.432-3.432q0.297-0.396,0.5115-0.396t0.2145,0.198t-0.264,0.561q-1.782,2.343-4.29,4.158t-4.257,1.815z M89.03583,34.225q0-0.396-0.8415-0.396t-2.3925,1.287q-2.079,1.716-3.234,3.597q0.198,0.066,0.429,0.066q1.254,0,3.3495-1.3365t2.6235-2.9205q0.066-0.165,0.066-0.297z"/><path fill="#960e82" d="M108.90644,34.315c0,0.378-0.147,0.525-0.504,0.525l-1.659,0c-0.378,0-0.546-0.147-0.546-0.525l0-5.859l-5.964,0l0,5.859c0,0.378-0.168,0.525-0.525,0.525l-1.638,0c-0.378,0-0.567-0.147-0.567-0.525l0-13.503c0-0.357,0.231-0.504,0.567-0.504l1.638,0c0.336,0,0.525,0.126,0.525,0.504l0,5.481l5.964,0l0-5.481c0-0.357,0.21-0.504,0.546-0.504l1.659,0c0.336,0,0.504,0.126,0.504,0.504l0,13.503z M122.12594,34.252c0,0.441-0.126,0.588-0.546,0.588l-1.344,0c-0.273,0-0.483-0.147-0.504-0.42l-0.021-0.525c-0.966,0.777-2.121,1.197-3.339,1.197c-2.352,0-3.318-1.491-3.318-3.759l0-6.195c0-0.357,0.21-0.483,0.546-0.483l1.47,0c0.336,0,0.525,0.105,0.525,0.483l0,5.754c0,1.155,0.294,1.953,1.554,1.953c0.798,0,1.806-0.441,2.436-1.008l0-6.699c0-0.357,0.189-0.483,0.525-0.483l1.491,0c0.336,0,0.525,0.105,0.525,0.483l0,9.114z M135.59744,29.758c0,2.898-1.491,5.334-4.62,5.334c-0.945,0-2.079-0.546-2.667-1.197l-0.084,0.693c-0.021,0.189-0.189,0.252-0.462,0.252l-1.26,0c-0.357,0-0.504-0.168-0.504-0.525l0-13.692c0-0.336,0.084-0.525,0.42-0.567l1.554-0.21c0.084-0.021,0.147-0.021,0.21-0.021c0.21,0,0.357,0.084,0.357,0.42l0,5.166c0.672-0.588,1.68-1.029,2.772-1.029c1.155,0,2.016,0.378,2.688,0.987c1.113,0.987,1.596,2.625,1.596,4.389z M132.97244,29.779c0-1.701-0.525-3.255-2.268-3.255c-0.777,0-1.596,0.42-2.163,0.945l0,4.494c0.504,0.567,1.281,1.029,2.058,1.029c1.827,0,2.373-1.575,2.373-3.213z"/></svg>
